<?xml version="1.0" encoding="utf-8"?>
<!-- Generator: Adobe Illustrator 25.3.1, SVG Export Plug-In . SVG Version: 6.00 Build 0)  -->
<svg version="1.1" id="Layer_1" xmlns="http://www.w3.org/2000/svg" xmlns:xlink="http://www.w3.org/1999/xlink" x="0px" y="0px"
	 viewBox="0 0 288 25.4" style="enable-background:new 0 0 288 25.4;" xml:space="preserve">
<style type="text/css">
	.st0{fill:#ED1C24;}
	.st1{fill:#F06574;}
	.st2{fill:#AF2B3F;}
	.st3{fill:#B02B42;}
	.st4{fill:#B42A45;}
	.st5{fill:#9A3B42;}
	.st6{fill:#871923;}
	.st7{fill:#FEF9F8;}
	.st8{fill:#3A1519;}
	.st9{fill:#FCEFEF;}
	.st10{fill:#F9C0C7;}
	.st11{fill:#BA2455;}
	.st12{fill:#C5228B;}
	.st13{fill:#F7E3EF;}
</style>
<g>
	<path d="M29,8.9c-0.4-0.1-0.9-0.2-1.8-0.2l-1.5,0c0,0,0,0.1,0,0.1c0,0.1-0.1,0.1-0.1,0.1c0,0-0.1,0.1-0.2,0.1
		c-0.2,0.1-0.4,0.1-0.6,0.1c-0.1,0-0.2,0-0.2-0.1c0,0-0.1-0.1-0.1-0.1c-0.1-0.1-0.1-0.1-0.1-0.2c0,0,0,0,0,0c-1.1,0-1.8-0.1-2.1-0.2
		c-0.4-0.1-0.5-0.4-0.5-0.8c0-1.1,0.7-2.1,2-3c1-0.6,1.8-1,2.6-1c0.5,0,0.7,0.2,0.7,0.7c0,0.2,0,0.5-0.1,0.8c0,0.2-0.1,0.5-0.1,0.8
		c0,0.4-0.1,0.7-0.1,1L26.8,7c1.1-0.4,2-0.8,2.9-1.2l-0.1-0.4c-0.1,0.1-0.4,0.1-0.7,0.3c-0.1,0.1-0.3,0.1-0.4,0.1
		c-0.2,0-0.3-0.1-0.3-0.3c0-0.1,0-0.3,0.1-0.7l0.2-1.1c0-0.3,0.1-0.6,0.2-0.9l0-0.2l-0.4,0.1c-1.6,0.3-2.9,0.7-3.9,1.2
		S22.5,5,21.7,5.9c-0.9,1.1-1.4,2-1.4,2.9c0,0.5,0.3,0.9,0.8,1.1s1.4,0.3,2.7,0.3l0.3,0c0-0.1,0-0.1,0.1-0.1c0-0.1,0.1-0.1,0.2-0.1
		c0.1,0,0.1-0.1,0.2,0c0.1,0,0.3,0,0.5,0c0.1,0,0.2,0,0.2,0.1c0,0,0.1,0.1,0.1,0.1c0,0,0.1,0.1,0.1,0.1h0h0.6c1.3,0,2.2,0.2,2.7,0.5
		s0.7,1,0.7,1.9c0,1.6-0.6,3-1.7,4.2s-2.5,1.8-3.9,1.8c-0.7,0-1.3-0.2-1.8-0.5c-0.5-0.3-0.9-0.9-1.2-1.7c0.6-0.4,1.2-1,1.8-1.6
		c0,0,0,0-0.1,0c-0.1,0-0.2,0-0.2-0.1c-0.1,0-0.1-0.1-0.2-0.1c0,0,0,0,0,0c-0.5,0.6-1,1-1.4,1.3c-0.2-0.6-0.5-1.4-0.9-2.6l-0.6-2.1
		c-0.6-2-1.1-3.4-1.5-4.4c-0.4-0.9-1-1.7-1.7-2.3c-1.3-1.2-2.8-1.7-4.6-1.7C9.6,2.9,8.1,3.6,6.9,5s-1.8,3.2-1.8,5.4
		c0,3.5,1.3,6,3.9,7.4c1.4,0.7,2.8,1.1,4.5,1.1c2.1,0,4.1-0.6,6.1-1.8c0.8,1.3,2.1,1.9,3.7,1.9c2.2,0,4.1-0.9,5.6-2.8
		c1.3-1.6,1.9-3.2,1.9-4.9C30.8,10.1,30.2,9.3,29,8.9z M14.4,18.2c-1.2,0-2.4-0.3-3.5-0.8s-2.1-1.2-2.8-2.2
		c-0.6-0.8-1.1-1.6-1.5-2.6s-0.6-2-0.6-3c0-1.9,0.4-3.4,1.3-4.5s2.2-1.6,3.8-1.6c1.5,0,2.8,0.6,3.9,1.8s1.9,3.2,2.6,5.9l0.9,3.4
		c0.2,0.6,0.5,1.4,0.8,2.2C17.7,17.7,16.1,18.2,14.4,18.2z"/>
	<path d="M39.1,10.5c-0.4,0-0.8-0.1-1-0.1c-2,0-3.6,0.8-4.7,2.3c-0.4,0.6-0.8,1.3-1.1,2.1c-0.3,0.8-0.4,1.5-0.4,2
		c0,0.4,0.1,0.7,0.3,0.9c0.2,0.2,0.5,0.4,0.8,0.4c0.8,0,1.7-0.6,2.7-1.9s1.5-2.5,1.5-3.5c0-0.2-0.1-0.4-0.2-0.6
		c-0.1-0.2-0.3-0.2-0.5-0.2c-0.6,0-1.2,0.6-1.8,1.8c0-0.1-0.1-0.3-0.1-0.4c0-0.5,0.3-1,0.9-1.5s1.2-0.8,1.7-0.8
		c0.3,0,0.7,0.1,0.9,0.4s0.4,0.6,0.4,1.1c0,1.4-0.9,2.9-2.7,4.4c-1.5,1.4-2.8,2-3.8,2c-0.4,0-0.8-0.2-1.1-0.5s-0.4-0.7-0.4-1.2
		c0-1.1,0.4-2.1,1.1-3.3c0.7-1.1,1.7-2.1,2.9-3c0.7-0.4,1.4-0.8,2.2-1.1s1.4-0.4,2-0.4c0.3,0,0.5,0.1,0.5,0.4
		C39.2,10.1,39.2,10.2,39.1,10.5z"/>
	<path d="M47.7,9.7h3.9c-0.8,2.4-2.4,4.6-4.9,6.6l-1.3,1.1c-0.2,0.2-0.6,0.5-0.9,0.8L43.7,19c0,0-0.1,0.1-0.2,0.2l0.1-0.6
		c0.2-1.1,0.5-2.3,0.7-3.7c0.3-1.9,0.5-3.1,0.7-3.6c-0.2,0.3-0.5,0.7-0.8,1.3c-1.7,3.2-3.3,5.4-5,6.5c0.6-1.4,1-2.7,1.3-4
		c0.3-1.3,0.5-2.4,0.5-3.2c0-0.7-0.2-1.1-0.5-1.1c-0.2,0-0.4,0.1-0.7,0.4l-0.2-0.3l0.2-0.2c0.7-0.4,1.2-0.8,1.6-1.1
		c0.7,0.3,1,0.9,1,1.7c0,1.1-0.4,2.8-1.1,5L41,16.8c0.3-0.5,0.6-0.9,0.8-1.2l1-1.9c1.2-2.1,2.4-3.5,3.7-4.3l-1.7,7.9
		c0.2-0.2,0.8-0.6,1.7-1.4c2.1-1.7,3.4-3.3,3.7-4.9h-1.6h-0.4c-0.5,0-0.8,0.2-0.9,0.6L47.1,12c0,0,0,0.1-0.1,0.2h-0.4L47.7,9.7z"/>
	<path d="M57.6,17.3l0.2,0.3c-0.9,0.7-2,1.1-3.3,1.4c0.2-1.3,0.9-3.2,2.2-5.8l0.8-1.4c0.2-0.5,0.4-0.8,0.4-0.9
		c0-0.2-0.1-0.3-0.2-0.3c-0.2,0-0.7,0.3-1.3,0.8c-0.7,0.5-1.3,1.2-1.9,1.9c-1.3,1.5-2.4,3.2-3.3,5.3c-0.4,0.1-0.9,0.3-1.5,0.6
		c0.7-1.4,1.4-3.1,2.1-4.9s1.1-2.9,1.1-3.2c0-0.3-0.1-0.4-0.3-0.4c-0.1,0-0.4,0.1-0.8,0.2c0,0-0.1,0-0.1,0l-0.1-0.4
		c1.1-0.3,2-0.6,2.9-1l0.2-0.1c0,0.1,0,0.2,0,0.2c0,0.7-0.5,2.1-1.5,4.4l-0.2,0.4l0.2-0.2c1.3-1.4,2.4-2.6,3.5-3.4
		c1.1-0.8,1.9-1.2,2.5-1.2c0.4,0,0.6,0.2,0.6,0.6c0,0.4-0.5,1.6-1.5,3.5c-1.2,2.3-1.8,3.6-1.8,3.9c0,0.2,0.1,0.3,0.3,0.3
		C56.9,17.8,57.2,17.6,57.6,17.3L57.6,17.3z"/>
	<path d="M71,3.2c0,0.5-0.4,1.6-1.1,3.4l-0.8,2.1l-0.3,0.8c0.5,0.2,0.7,0.6,0.8,1.1c-0.3-0.1-0.7-0.2-1.1-0.2l-0.1,0.2l-1.5,3.8
		c-0.7,1.8-1,2.8-1,3c0,0.2,0.1,0.3,0.3,0.3s0.6-0.1,1.1-0.4c0,0,0.1,0,0.1-0.1l0.2,0.3c-0.8,0.6-2,1.1-3.5,1.5l0.1-0.4
		c0.2-0.9,0.7-2.1,1.2-3.5c0.2-0.4,0.3-0.8,0.5-1.2l1.3-3.4l0.1-0.2c-0.8,0-1.7,0.2-2.7,0.7s-1.8,1-2.5,1.7c-1.3,1.4-2,2.7-2,4.1
		c0,0.6,0.2,1,0.7,1c0.5,0,1.1-0.3,1.8-1c0.7-0.6,1.3-1.4,1.9-2.4c0.5-0.9,0.9-1.9,1.2-2.9c0.1,0.3,0.2,0.6,0.2,0.9
		c0,0.6-0.3,1.4-0.8,2.2s-1.3,1.7-2.2,2.5c-1.4,1.2-2.5,1.8-3.2,1.8c-0.6,0-0.9-0.4-0.9-1.1c0-0.6,0.2-1.4,0.6-2.2
		c0.4-0.8,1-1.6,1.6-2.4c1.9-2.1,4.1-3.4,6.7-3.8l0.3-0.8l0.8-2.2c0.2-0.6,0.4-1.1,0.4-1.3c0-0.3-0.2-0.5-0.5-0.5
		c-0.2,0-0.4,0.1-0.7,0.2l-0.1-0.3l0.2-0.1C69.2,4.1,70.2,3.6,71,3.2z"/>
	<path d="M76,17.4l0.2,0.3c-0.8,0.4-1.7,0.8-2.9,1.3L73,19c0.1-1.2,0.9-3.5,2.5-6.9c0.2-0.5,0.4-0.9,0.4-1.1c0-0.2-0.1-0.4-0.3-0.4
		c-0.2,0-0.6,0.2-1.1,0.6c-0.5,0.4-1,0.9-1.5,1.4c-0.7,0.8-1.4,1.7-2.2,2.8s-1.2,2-1.6,2.8c-0.5,0.1-1,0.2-1.5,0.5l0.1-0.3
		c0.5-1.2,1-2.4,1.4-3.5l1.3-3.4l1.4-3.4c0.7-1.7,1-2.7,1-3.1c0-0.3-0.1-0.4-0.4-0.4c-0.1,0-0.3,0.1-0.7,0.2l-0.2,0.1l-0.1-0.3
		c0.9-0.3,1.8-0.7,2.8-1.2l0.2-0.1c0,0.2,0,0.2,0,0.3c0,0.6-0.2,1.4-0.6,2.5c-0.4,1.1-1.2,3-2.3,5.8l-1.2,3l-0.1,0.3l0.2-0.2
		c2.9-3.6,5.1-5.5,6.3-5.5c0.4,0,0.6,0.2,0.6,0.6c0,0.3-0.1,0.7-0.4,1.3L76.4,13c-1.2,2.7-1.8,4.2-1.8,4.6c0,0.2,0.1,0.2,0.3,0.2
		c0.2,0,0.6-0.1,1-0.4L76,17.4z"/>
	<path d="M84.8,17.3l0.2,0.3c-0.8,0.6-1.9,1.1-3.3,1.4c0-0.8,0.5-2.1,1.4-4c-1,1.2-2,2.1-3.1,2.9C79,18.7,78.2,19,77.5,19
		c-0.5,0-0.8-0.3-0.8-1c0-1.2,0.5-2.4,1.6-3.8s2.3-2.5,3.9-3.3c1.8-1,3.5-1.5,5.3-1.5c0.2,0,0.4,0.1,0.4,0.3c0,0.1-0.1,0.4-0.3,0.9
		c-0.5-0.1-1-0.1-1.5-0.1c-2.3,0-4.4,0.9-6.1,2.7c-1.2,1.3-1.9,2.7-1.9,4c0,0.6,0.2,0.9,0.7,0.9c0.4,0,0.9-0.3,1.7-1
		s1.4-1.4,1.9-2.3c0.8-1.2,1.3-2.5,1.6-3.8c0.3,0.2,0.5,0.6,0.5,1.1c0,0.8-0.4,1.6-1.1,2.6c0.4,0,0.8-0.1,1.4-0.3l-0.1,0.2
		c-0.7,1.6-1.1,2.6-1.1,2.9c0,0.2,0.1,0.3,0.3,0.3C84,17.7,84.3,17.5,84.8,17.3z"/>
	<path d="M93.9,9.5l-0.4,1.2c-0.3-0.1-0.6-0.1-0.8-0.1c-0.9,0-1.8,0.7-2.9,2.1c-0.5,0.6-0.9,1.4-1.2,2.1c-0.3,0.8-0.8,1.9-1.3,3.5
		l-0.1,0.4c-0.5,0.1-1,0.2-1.4,0.4l0.1-0.4l1-2.7c1-2.6,1.4-4.1,1.4-4.6c0-0.2-0.1-0.4-0.3-0.4c-0.1,0-0.4,0.1-0.8,0.3L87.2,11
		c1.1-0.5,2-1.1,2.9-1.7c0,0.1,0.1,0.3,0.1,0.4c0,0.6-0.3,1.6-0.8,3l0.3-0.3c1.8-2,3.1-2.9,3.8-2.9C93.6,9.3,93.7,9.4,93.9,9.5z"/>
	<path d="M95.6,9.7c0.1,0.3,0.2,0.7,0.2,1.2c0,0.9-0.2,2.3-0.7,4c1.2-1.6,2.3-2.9,3.4-3.8s1.9-1.4,2.5-1.4c0.4,0,0.7,0.4,0.7,1.1
		c0,1.9-1.1,4-3.3,6.4c-1,1.1-1.9,1.9-2.8,2.4c-0.9,0.5-1.9,0.9-3.1,1c-1,0.1-1.7,0.4-2.2,0.7s-0.7,0.7-0.7,1.3c0,0.4,0.2,0.8,0.6,1
		s1,0.4,1.6,0.4c0.8,0,1.6-0.2,2.3-0.6c-0.2,1-0.9,1.4-2.2,1.4c-0.8,0-1.4-0.2-1.9-0.6s-0.8-0.9-0.8-1.5c0-0.8,0.4-1.6,1.1-2.4
		c0.4-0.4,0.8-0.7,1.2-0.8s1.2-0.3,2.3-0.4c1-0.1,1.8-0.4,2.5-0.8c1-0.6,1.8-1.5,2.5-2.5c0.4-0.6,0.8-1.2,1-2s0.4-1.4,0.4-1.9
		c0-0.6-0.2-0.9-0.6-0.9c-0.7,0-1.7,0.8-3,2.3c-1.3,1.5-2.4,3.3-3.3,5.3L93.3,19h-0.4l0.1-0.4c0.9-3.1,1.3-5.3,1.3-6.7
		c0-0.5-0.2-0.7-0.5-0.7c-0.1,0-0.3,0-0.5,0.1c0,0-0.1,0-0.2,0.1L93.1,11c0.1-0.1,0.2-0.1,0.2-0.1l1.1-0.5l1.1-0.6
		C95.4,9.8,95.5,9.7,95.6,9.7z"/>
	<path d="M108.6,17.3l0.2,0.3c-0.8,0.6-1.9,1.1-3.3,1.4c0-0.8,0.5-2.1,1.4-4c-1,1.2-2,2.1-3.1,2.9c-1.1,0.8-1.9,1.1-2.5,1.1
		c-0.5,0-0.8-0.3-0.8-1c0-1.2,0.5-2.4,1.6-3.8s2.3-2.5,3.9-3.3c1.8-1,3.5-1.5,5.3-1.5c0.2,0,0.4,0.1,0.4,0.3c0,0.1-0.1,0.4-0.3,0.9
		c-0.5-0.1-1-0.1-1.5-0.1c-2.3,0-4.4,0.9-6.1,2.7c-1.2,1.3-1.9,2.7-1.9,4c0,0.6,0.2,0.9,0.7,0.9c0.4,0,0.9-0.3,1.7-1
		s1.4-1.4,1.9-2.3c0.8-1.2,1.3-2.5,1.6-3.8c0.3,0.2,0.5,0.6,0.5,1.1c0,0.8-0.4,1.6-1.1,2.6c0.4,0,0.8-0.1,1.4-0.3l-0.1,0.2
		c-0.7,1.6-1.1,2.6-1.1,2.9c0,0.2,0.1,0.3,0.3,0.3C107.8,17.7,108.1,17.5,108.6,17.3z"/>
	<path d="M121.2,17.3l0.2,0.3c-0.8,0.6-1.8,1.1-2.9,1.4c0.1-1.7,0.9-4,2.4-7l0.3-0.7c0.1-0.1,0.1-0.2,0.1-0.3c0-0.2-0.1-0.3-0.2-0.3
		c-0.3,0-1,0.5-2,1.5c-0.7,0.7-1.4,1.6-2,2.7s-1.1,2.2-1.5,3.4c-0.4,0.1-1,0.3-1.6,0.6l0.1-0.3l0.7-1.7c0.5-1.2,1-2.5,1.4-3.7
		c0.4-1.2,0.6-2,0.6-2.2c0-0.2-0.1-0.3-0.3-0.3c-0.3,0-0.7,0.3-1.3,0.9c-0.6,0.6-1.2,1.3-1.7,2.1c-0.9,1.4-1.7,2.9-2.4,4.6
		c-0.1,0-0.2,0.1-0.2,0.1l-0.6,0.2c-0.2,0.1-0.5,0.2-0.8,0.3c0.2-0.4,0.6-1.2,1.1-2.5l0.9-2.2c0.7-1.6,1-2.7,1.1-3.1
		c0-0.3-0.1-0.4-0.3-0.4c-0.2,0-0.4,0.1-0.7,0.2l-0.1-0.4c0.7-0.3,1.5-0.7,2.6-1.4l0.2-0.2c0,0.2,0,0.3,0,0.4c0,0.6-0.4,1.9-1.2,3.9
		c2.1-2.7,3.8-4.1,5-4.1c0.3,0,0.5,0.2,0.5,0.6c0,0.6-0.4,1.8-1.2,3.7c0.9-1.2,1.8-2.2,2.9-3c1-0.8,1.8-1.3,2.4-1.3
		c0.3,0,0.5,0.2,0.5,0.5c0,0.2-0.3,1-0.9,2.2c-1.4,3-2.1,4.8-2.1,5.3c0,0.2,0.1,0.3,0.3,0.3C120.6,17.6,120.8,17.5,121.2,17.3z"/>
	<path d="M149.9,9.2c0.5-0.8,0.8-1.6,1.1-2.4s0.4-1.5,0.4-2.1c0-0.6-0.2-0.9-0.6-0.9c-0.3,0-0.6,0.3-0.8,1s-0.3,1.4-0.3,2.3
		C149.7,7.7,149.7,8.4,149.9,9.2z M140.7,7.2c-0.1-0.1-0.3-0.2-0.4-0.2c-0.9-0.4-2-0.7-3.1-0.7c-2,0-3.6,0.6-4.9,1.7
		s-1.9,2.6-1.9,4.4c0,1.4,0.4,2.6,1.1,3.6c0.6,0.9,1.5,1.6,2.6,2.1s2.2,0.8,3.4,0.8c1.9,0,3.8-0.7,5.7-2c2-1.3,3.9-3.2,5.7-5.6
		c0,0.1,0.1,0.2,0.1,0.2l0.4,1.6c0.4,1.8,0.6,3.1,0.6,3.9c0,0.5-0.1,1-0.4,1.6l0.3,0.2l0.2-0.3l2.6-3.2l2.5-3.1
		c0.7-0.9,1.2-1.5,1.6-2l0.4-0.5c-0.4,1.8-0.8,3.6-1.1,5.5s-0.5,3.1-0.5,3.8c0.5-0.2,1.1-0.4,1.7-0.7c0.9-0.3,1.4-0.6,1.8-0.7
		l-0.2-0.4c-0.5,0.2-0.8,0.3-1.1,0.3c-0.4,0-0.5-0.2-0.5-0.6c0-0.5,0.2-1.7,0.5-3.6c0.4-1.9,0.6-3.3,0.9-4.1c0.4-1.4,1-2.5,1.8-3.4
		c0.8-0.9,1.6-1.3,2.4-1.3c0.6,0,1,0.2,1,0.6c0,0.1,0,0.3-0.1,0.5L163.6,6L164,6l0.9-3c-0.8,0-1.7,0.2-2.6,0.7
		c-0.6,0.4-1.2,0.8-1.8,1.4c-0.6,0.6-1.5,1.7-2.8,3.2l-5.4,6.7l-0.8,0.9c-0.1,0.1-0.2,0.2-0.4,0.5c-0.1-1.2-0.4-2.7-0.8-4.4
		c-0.3-1-0.4-1.7-0.5-2.1c0.9-1.4,1.5-2.5,1.8-3.4s0.6-1.7,0.6-2.4c0-1.1-0.3-1.6-0.9-1.6c-0.6,0-1.2,0.7-1.9,2
		c-0.6,1.3-0.9,2.7-0.9,4.1c0,0.6,0.1,1.3,0.2,2.1c-1.6,2.3-3.3,4-5.1,5.2s-3.6,1.8-5.4,1.8c-2.1,0-3.8-0.6-5.1-1.6
		c-1.3-1.1-2-2.5-2-4.3c0-1.4,0.4-2.6,1.3-3.4c0.9-0.9,2-1.3,3.5-1.3c1.1,0,2.4,0.4,3.7,1.1c0.2,0.1,0.4,0.2,0.6,0.3L140.7,7.2z"/>
	<path d="M168.2,17.3l0.2,0.3c-0.8,0.6-1.9,1.1-3.3,1.4c0-0.8,0.5-2.1,1.4-4c-1,1.2-2,2.1-3.1,2.9s-1.9,1.1-2.5,1.1
		c-0.5,0-0.8-0.3-0.8-1c0-1.2,0.5-2.4,1.6-3.8s2.3-2.5,3.9-3.3c1.8-1,3.5-1.5,5.3-1.5c0.2,0,0.4,0.1,0.4,0.3c0,0.1-0.1,0.4-0.4,0.9
		c-0.5-0.1-1-0.1-1.5-0.1c-2.3,0-4.4,0.9-6.1,2.7c-1.2,1.3-1.9,2.7-1.9,4c0,0.6,0.2,0.9,0.7,0.9c0.4,0,0.9-0.3,1.7-1
		s1.4-1.4,1.9-2.3c0.8-1.2,1.3-2.5,1.6-3.8c0.3,0.2,0.5,0.6,0.5,1.1c0,0.8-0.4,1.6-1.1,2.6c0.4,0,0.8-0.1,1.4-0.3l-0.1,0.2
		c-0.7,1.6-1.1,2.6-1.1,2.9c0,0.2,0.1,0.3,0.3,0.3C167.4,17.7,167.7,17.5,168.2,17.3z"/>
	<path d="M177.3,9.5l-0.4,1.2c-0.3-0.1-0.6-0.1-0.8-0.1c-0.9,0-1.8,0.7-2.9,2.1c-0.5,0.6-0.9,1.4-1.2,2.1s-0.8,1.9-1.3,3.5l-0.1,0.4
		c-0.5,0.1-1,0.2-1.4,0.4l0.1-0.4l1-2.7c1-2.6,1.4-4.1,1.4-4.6c0-0.2-0.1-0.4-0.3-0.4c-0.1,0-0.4,0.1-0.8,0.3l-0.1-0.4
		c1.1-0.5,2-1.1,2.9-1.7c0,0.1,0.1,0.3,0.1,0.4c0,0.6-0.3,1.6-0.8,3l0.3-0.3c1.8-2,3.1-2.9,3.8-2.9C176.9,9.3,177.1,9.4,177.3,9.5z"
		/>
	<path d="M181.7,9.4l-0.1,0.4h-1.6l-0.1,0.2c-0.1,0.3-0.5,1.2-1.2,2.7c-0.3,0.6-0.6,1.4-1.1,2.5c-0.6,1.2-0.8,2-0.8,2.4
		s0.2,0.5,0.5,0.5c0.4,0,1-0.2,1.7-0.7l0.2,0.3c-0.5,0.4-1,0.6-1.6,0.9s-1.1,0.4-1.5,0.4c-0.6,0-0.9-0.2-0.9-0.7
		c0-0.3,0.3-1.2,1-2.7l1.2-2.7c0.7-1.5,1.1-2.4,1.2-2.7l0.1-0.3h-1.5l0.2-0.4h0.1c0.7,0,1.1-0.1,1.3-0.3c0.2-0.2,0.5-0.8,0.9-1.8
		c0.1,0,0.2,0,0.2,0c0.4,0,0.7-0.1,1.1-0.1c-0.1,0.2-0.2,0.6-0.4,1.1l-0.4,0.8L180,9.4L181.7,9.4L181.7,9.4z"/>
	<path d="M187.9,9.5l-0.4,1.2c-0.3-0.1-0.6-0.1-0.8-0.1c-0.9,0-1.8,0.7-2.9,2.1c-0.5,0.6-0.9,1.4-1.2,2.1s-0.8,1.9-1.3,3.5l-0.1,0.4
		c-0.5,0.1-1,0.2-1.4,0.4l0.1-0.4l1-2.7c1-2.6,1.4-4.1,1.4-4.6c0-0.2-0.1-0.4-0.3-0.4c-0.1,0-0.4,0.1-0.8,0.3l-0.1-0.4
		c1.1-0.5,2-1.1,2.9-1.7c0,0.1,0.1,0.3,0.1,0.4c0,0.6-0.3,1.6-0.8,3l0.3-0.3c1.8-2,3.1-2.9,3.8-2.9C187.5,9.3,187.7,9.4,187.9,9.5z"
		/>
	<path d="M190.5,9.2v0.1c0,0.7-0.5,2.1-1.4,4.3l-0.9,1.9c-0.4,1-0.7,1.7-0.7,1.9c0,0.2,0.1,0.4,0.4,0.3c0.1,0,0.4-0.1,0.8-0.2
		l0.1,0.3c-1.2,0.6-2.2,1-2.9,1.2c0-0.7,0.2-1.4,0.4-2s0.6-1.6,1.3-3c0.8-1.8,1.2-2.9,1.3-3.2c0-0.2-0.1-0.4-0.3-0.4
		c-0.1,0-0.2,0-0.4,0.1l-0.5,0.2c0,0-0.1,0-0.2,0.1l-0.1-0.4l0.2-0.1c0.9-0.3,1.7-0.7,2.6-1.1L190.5,9.2z M191.2,6.2
		c0.4,0,0.5,0.2,0.5,0.5c0,0.2-0.1,0.4-0.2,0.5s-0.3,0.2-0.5,0.2c-0.4,0-0.5-0.2-0.5-0.5c0-0.2,0.1-0.4,0.2-0.5
		C190.8,6.3,191,6.2,191.2,6.2z"/>
	<path d="M201.5,17.3l0.2,0.3c-0.8,0.6-1.8,1.1-2.9,1.4c0.1-1.7,0.9-4,2.4-7l0.3-0.7c0.1-0.1,0.1-0.2,0.1-0.3c0-0.2-0.1-0.3-0.2-0.3
		c-0.3,0-1,0.5-2,1.5c-0.7,0.7-1.4,1.6-2,2.7c-0.6,1.1-1.1,2.2-1.5,3.4c-0.4,0.1-1,0.3-1.6,0.6l0.1-0.3L195,17
		c0.5-1.2,1-2.5,1.4-3.7c0.4-1.2,0.6-2,0.6-2.2c0-0.2-0.1-0.3-0.3-0.3c-0.3,0-0.7,0.3-1.3,0.9c-0.6,0.6-1.2,1.3-1.7,2.1
		c-0.9,1.4-1.7,2.9-2.4,4.6c-0.1,0-0.2,0.1-0.2,0.1l-0.6,0.2c-0.2,0.1-0.5,0.2-0.8,0.3c0.2-0.4,0.6-1.2,1.1-2.5l0.9-2.2
		c0.7-1.6,1-2.7,1.1-3.1c0-0.3-0.1-0.4-0.3-0.4c-0.1,0-0.4,0.1-0.7,0.2l-0.1-0.4c0.7-0.3,1.5-0.7,2.6-1.4l0.2-0.2c0,0.2,0,0.3,0,0.4
		c0,0.6-0.4,1.9-1.2,3.9c2.1-2.7,3.8-4.1,5-4.1c0.4,0,0.5,0.2,0.5,0.6c0,0.6-0.4,1.8-1.2,3.7c0.9-1.2,1.8-2.2,2.9-3
		c1-0.8,1.8-1.3,2.4-1.3c0.3,0,0.5,0.2,0.5,0.5c0,0.2-0.3,1-0.9,2.2c-1.4,3-2.1,4.8-2.1,5.3c0,0.2,0.1,0.3,0.3,0.3
		C200.9,17.6,201.1,17.5,201.5,17.3z"/>
	<path d="M211.3,10.5c-0.4,0-0.8-0.1-1-0.1c-2,0-3.6,0.8-4.6,2.3c-0.4,0.6-0.8,1.3-1.1,2.1c-0.3,0.8-0.4,1.5-0.4,2
		c0,0.4,0.1,0.7,0.3,0.9c0.2,0.2,0.5,0.4,0.8,0.4c0.8,0,1.7-0.6,2.6-1.9s1.4-2.5,1.4-3.5c0-0.2-0.1-0.4-0.2-0.6
		c-0.1-0.2-0.3-0.2-0.5-0.2c-0.6,0-1.2,0.6-1.8,1.8c0-0.1-0.1-0.3-0.1-0.4c0-0.5,0.3-1,0.9-1.5s1.1-0.8,1.7-0.8
		c0.4,0,0.6,0.1,0.9,0.4s0.4,0.6,0.4,1.1c0,1.4-0.9,2.9-2.7,4.4c-1.5,1.4-2.8,2-3.8,2c-0.4,0-0.8-0.2-1.1-0.5s-0.4-0.7-0.4-1.2
		c0-1.1,0.4-2.1,1.1-3.3c0.7-1.1,1.7-2.1,2.9-3c0.7-0.4,1.4-0.8,2.2-1.1s1.4-0.4,2-0.4c0.3,0,0.5,0.1,0.5,0.4
		C211.5,10.1,211.4,10.2,211.3,10.5z"/>
	<path d="M218.5,17.3l0.2,0.3c-0.9,0.7-2,1.1-3.3,1.4c0.2-1.3,0.9-3.2,2.2-5.8l0.8-1.4c0.2-0.5,0.4-0.8,0.4-0.9
		c0-0.2-0.1-0.3-0.2-0.3c-0.2,0-0.7,0.3-1.4,0.8s-1.3,1.2-1.9,1.9c-1.3,1.5-2.4,3.2-3.3,5.3c-0.4,0.1-0.9,0.3-1.5,0.6
		c0.7-1.4,1.4-3.1,2.1-4.9s1.1-2.9,1.1-3.2c0-0.3-0.1-0.4-0.3-0.4c-0.1,0-0.4,0.1-0.8,0.2c0,0-0.1,0-0.1,0l-0.1-0.4
		c1.1-0.3,2.1-0.6,2.9-1l0.1-0.1c0,0.1,0,0.2,0,0.2c0,0.7-0.5,2.1-1.5,4.4l-0.2,0.4l0.2-0.2c1.3-1.4,2.4-2.6,3.5-3.4
		c1.1-0.8,1.9-1.2,2.5-1.2c0.4,0,0.6,0.2,0.6,0.6c0,0.4-0.5,1.6-1.5,3.5c-1.2,2.3-1.8,3.6-1.8,3.9c0,0.2,0.1,0.3,0.3,0.3
		C217.7,17.8,218,17.6,218.5,17.3L218.5,17.3z"/>
	<path d="M223.6,9.7c0.1,0.3,0.2,0.7,0.2,1.2c0,0.9-0.2,2.3-0.7,4c1.2-1.6,2.4-2.9,3.4-3.8c1.1-0.9,1.9-1.4,2.5-1.4
		c0.4,0,0.7,0.4,0.7,1.1c0,1.9-1.1,4-3.3,6.4c-1,1.1-1.9,1.9-2.8,2.4c-0.9,0.5-1.9,0.9-3.1,1c-1,0.1-1.7,0.4-2.1,0.7
		c-0.4,0.3-0.7,0.7-0.7,1.3c0,0.4,0.2,0.8,0.6,1s1,0.4,1.6,0.4c0.8,0,1.6-0.2,2.3-0.6c-0.2,1-0.9,1.4-2.2,1.4
		c-0.8,0-1.4-0.2-1.9-0.6s-0.8-0.9-0.8-1.5c0-0.8,0.4-1.6,1.1-2.4c0.4-0.4,0.8-0.7,1.2-0.8s1.2-0.3,2.3-0.4c1-0.1,1.8-0.4,2.5-0.8
		c1-0.6,1.8-1.5,2.5-2.5c0.4-0.6,0.8-1.2,1-2s0.4-1.4,0.4-1.9c0-0.6-0.2-0.9-0.6-0.9c-0.7,0-1.7,0.8-3,2.3c-1.3,1.5-2.4,3.3-3.3,5.3
		l-0.1,0.2h-0.4l0.1-0.4c0.9-3.1,1.3-5.3,1.3-6.7c0-0.5-0.2-0.7-0.5-0.7c-0.1,0-0.3,0-0.5,0.1c0,0-0.1,0-0.2,0.1l-0.1-0.4
		c0.1-0.1,0.1-0.1,0.2-0.1l1.1-0.5l1.1-0.6C223.4,9.8,223.5,9.7,223.6,9.7z"/>
	<path d="M23.9,8.7c0,0,1.7,0,2.6,0s-0.4,1.4-0.4,1.4l-2.1,0l-0.1-0.6L23.9,8.7z"/>
</g>
<g>
	<g>
		<path class="st0" d="M146.2,7.5c-0.4,0-0.8,0.2-1.2,0.5l-0.2,0.2c0,0-0.1,0.1-0.2,0.1c-0.1,0-0.1,0.1-0.3,0.1
			c-0.2,0-0.4-0.1-0.4-0.1c-0.2-0.2-0.2-0.3-0.3-0.4c-0.1-0.1-0.1-0.2-0.2-0.3C143,7,142,6.6,141.3,7c-0.8,0.4-1,1.5-0.8,2.4
			c0.2,0.9,0.7,1.8,1.3,2.5c0.3,0.4,0.6,0.7,1,1.1l0.3,0.2c0.1,0.1,0.2,0.2,0.3,0.2c0.2-0.1,0.5-0.2,0.7-0.2
			c0.9-0.4,1.8-0.8,2.5-1.5c0.7-0.6,1.3-1.5,1.3-2.4c0-0.5-0.1-0.9-0.4-1.2C147.1,7.7,146.6,7.5,146.2,7.5z M146.2,7
			c0.5,0.1,1,0.3,1.4,0.7c0.4,0.4,0.4,1,0.4,1.5c0,0.5-0.2,1-0.5,1.4c-0.3,0.4-0.6,0.8-1,1.1c-0.8,0.6-1.6,1.1-2.5,1.5
			c-0.2,0.1-0.4,0.2-0.7,0.2c-0.1,0-0.2-0.1-0.3-0.2l-0.3-0.2c-0.4-0.3-0.7-0.7-1-1c-0.6-0.8-1.2-1.6-1.5-2.6c-0.1-0.5-0.1-1,0-1.5
			s0.4-1,0.8-1.3c0.9-0.7,2.3-0.4,3.1,0.5c0.1,0.1,0.2,0.2,0.3,0.3c0.1,0.1,0.2,0.3,0.1,0.2c0,0-0.1-0.1-0.2-0.1c-0.1,0-0.1,0-0.1,0
			s0.1-0.1,0.1-0.1c0.1-0.1,0.2-0.1,0.4-0.2C145.1,7.1,145.7,6.9,146.2,7z"/>
	</g>
</g>
<g>
	<g>
		<path class="st0" d="M24,11.5c-0.2,0-0.4,0.1-0.6,0.2c0,0-0.1,0.1-0.1,0.1l-0.1,0.1c0,0,0,0-0.1,0.1c-0.1,0-0.2,0-0.2-0.1
			c-0.1-0.1-0.1-0.1-0.1-0.2c0-0.1-0.1-0.1-0.1-0.1c-0.3-0.4-0.9-0.5-1.2-0.2s-0.5,0.8-0.4,1.3c0.1,0.5,0.4,1,0.7,1.4
			c0.2,0.2,0.3,0.4,0.5,0.6c0.1,0.1,0.2,0.2,0.3,0.2c0.1,0,0.2-0.1,0.4-0.1c0.5-0.2,1-0.4,1.4-0.8c0.4-0.4,0.7-0.8,0.7-1.4
			C24.8,11.9,24.5,11.6,24,11.5z M24.1,11.2c0.3,0.1,0.6,0.2,0.8,0.4c0.2,0.2,0.2,0.6,0.2,0.9c-0.1,0.6-0.5,1-0.9,1.4
			c-0.4,0.4-0.9,0.6-1.4,0.8c-0.1,0.1-0.2,0.1-0.4,0.1c-0.2,0-0.2-0.1-0.4-0.2c-0.2-0.2-0.4-0.4-0.6-0.6c-0.4-0.4-0.7-0.9-0.9-1.4
			c-0.1-0.6-0.1-1.3,0.5-1.7c0.6-0.4,1.4-0.1,1.7,0.3c0.1,0.1,0.2,0.3,0.2,0.3c0,0-0.1,0-0.1,0s0,0,0,0l0.1-0.1
			c0.1,0,0.1-0.1,0.2-0.1C23.4,11.2,23.7,11.1,24.1,11.2z"/>
	</g>
</g>
<g>
	<path d="M228,14.9c0.3,0,0.6,0,0.9,0c0.2,0,0.4,0,0.6,0c0.7,0,1.3,0,2,0c0.2,0,0.2,0,0.3-0.2c0.2-0.7,0.4-1.4,0.6-2.1
		c0.1-0.2,0.2-0.3,0.4-0.2c0.1,0,0.1,0.1,0.1,0.2c0.1,0.4,0.1,0.8,0.2,1.1c0.1,0.9,0.3,1.7,0.4,2.6c0.1,0.9,0.3,1.9,0.4,2.9
		c0.1,0.6,0.2,1.3,0.3,1.9c0-0.1,0-0.1,0-0.2c0-0.4,0.1-0.7,0.1-1.1c0-0.4,0.1-0.9,0.1-1.3c0-0.4,0.1-0.9,0.1-1.3
		c0-0.4,0.1-0.9,0.1-1.3c0-0.4,0.1-0.9,0.1-1.3c0-0.4,0.1-0.9,0.1-1.3c0-0.5,0.1-1,0.1-1.5c0-0.4,0.1-0.7,0.1-1.1
		c0-0.4,0.1-0.9,0.1-1.3c0-0.3,0.1-0.7,0.1-1c0-0.4,0.1-0.7,0.1-1.1c0-0.3,0.1-0.7,0.1-1c0-0.1,0.1-0.2,0.2-0.2
		c0.1,0,0.2,0.1,0.2,0.2c0,0.2,0.1,0.5,0.1,0.7c0.1,0.6,0.1,1.2,0.2,1.8c0,0.4,0.1,0.8,0.1,1.1c0,0.4,0.1,0.8,0.1,1.1
		c0,0.4,0.1,0.9,0.1,1.3c0,0.4,0.1,0.9,0.1,1.4c0,0.3,0.1,0.6,0.1,0.9s0.1,0.6,0.1,0.9c0,0.2,0,0.4,0.1,0.6c0.1-0.1,0.1-0.2,0.2-0.4
		c0.1-0.2,0.2-0.4,0.3-0.6c0.1-0.1,0.2-0.2,0.3-0.2c2.1,0,4.3,0,6.4,0c0.1,0,0.1,0,0.2,0c0,0,0,0,0,0c-0.1-0.1-0.1-0.1-0.2-0.2
		c-0.7-0.5-1.4-1.1-2.1-1.6c-0.6-0.4-1.1-0.9-1.5-1.5c-0.4-0.6-0.7-1.3-0.8-2c-0.1-0.8,0.1-1.6,0.7-2.2c0.6-0.7,1.4-1.1,2.4-1.3
		c0.7-0.1,1.4,0,2.1,0.2c0.4,0.2,0.8,0.4,1.1,0.7c0.2,0.2,0.3,0.3,0.5,0.4c0,0,0,0,0,0c0.1-0.1,0.1-0.1,0.1-0.2
		c0.5-0.6,1.2-1,1.9-1.1c1.2-0.3,2.3-0.1,3.3,0.6c0.8,0.5,1.3,1.2,1.4,2.2c0.1,0.6,0,1.2-0.2,1.7c-0.3,0.8-0.8,1.4-1.4,1.9
		c-0.7,0.6-1.4,1.1-2,1.6c-0.3,0.3-0.6,0.5-1,0.8c0,0,0,0,0,0c0.1,0,0.1,0,0.1,0c2.1,0,4.2,0,6.3,0c0.1,0,0.2,0.1,0.3,0.2
		c0.1,0.3,0.3,0.6,0.4,0.8c0,0,0.1,0.1,0.1,0.1c0-0.2,0.1-0.4,0.1-0.6c0-0.4,0.1-0.9,0.1-1.4c0-0.3,0.1-0.6,0.1-0.9
		c0-0.4,0.1-0.9,0.1-1.4c0-0.4,0.1-0.7,0.1-1.1c0-0.4,0.1-0.9,0.1-1.3c0-0.5,0.1-1.1,0.1-1.6c0-0.5,0.1-1,0.1-1.4
		c0-0.2,0.1-0.2,0.2-0.3c0.1,0,0.2,0,0.3,0.1c0,0.1,0,0.1,0,0.2c0,0.5,0.1,1,0.1,1.5c0,0.4,0.1,0.9,0.1,1.3c0,0.4,0.1,0.9,0.1,1.3
		c0,0.5,0.1,1,0.1,1.5c0,0.4,0.1,0.9,0.1,1.4c0,0.5,0.1,1,0.1,1.6c0,0.5,0.1,1,0.1,1.5c0,0.4,0.1,0.9,0.1,1.3s0.1,0.9,0.1,1.3
		c0,0.4,0.1,0.9,0.1,1.3c0,0.3,0,0.5,0.1,0.8c0,0,0,0,0,0c0-0.1,0-0.3,0.1-0.4c0.1-0.8,0.2-1.7,0.4-2.5c0.2-1.2,0.4-2.4,0.5-3.6
		c0.1-0.6,0.2-1.3,0.3-1.9c0-0.1,0-0.1,0-0.1c0-0.1,0.1-0.2,0.2-0.2c0.1,0,0.2,0,0.2,0.1c0.1,0.2,0.1,0.4,0.2,0.6
		c0.2,0.6,0.3,1.2,0.5,1.8c0,0.1,0,0.1,0.1,0.1c0.1,0,0.2,0,0.3,0c0.8,0,1.5,0,2.3,0c0.2,0,0.4,0,0.6,0c0,0.2,0,0.3,0,0.5
		c-0.3,0-0.6,0-0.9,0c-0.9,0-1.7,0-2.6,0c-0.1,0-0.2-0.1-0.2-0.2c-0.1-0.3-0.1-0.5-0.2-0.8c0-0.2-0.1-0.4-0.1-0.6
		c0,0.1,0,0.1-0.1,0.1c-0.1,0.8-0.2,1.6-0.4,2.4c-0.2,1.2-0.4,2.4-0.5,3.6c-0.2,1.1-0.4,2.3-0.5,3.4c0,0.1-0.1,0.2-0.1,0.3
		c-0.1,0-0.1,0-0.2,0c-0.1-0.1-0.1-0.2-0.2-0.4c0-0.5-0.1-1-0.1-1.5c0-0.5-0.1-1-0.1-1.5c0-0.6-0.1-1.2-0.1-1.8
		c0-0.6-0.1-1.2-0.1-1.8c0-0.4-0.1-0.9-0.1-1.3c0-0.6-0.1-1.2-0.1-1.8c0-0.4,0-0.7-0.1-1c0-0.4-0.1-0.9-0.1-1.3c0-0.3,0-0.7-0.1-1
		c0-0.3,0-0.5-0.1-0.8c0,0.1,0,0.3,0,0.4c-0.1,0.8-0.1,1.6-0.2,2.4c-0.1,0.7-0.1,1.4-0.2,2.2c-0.1,0.7-0.1,1.4-0.2,2
		c0,0.1,0,0.3-0.1,0.4c0,0.1,0,0.2-0.1,0.2c-0.1,0-0.2,0-0.3-0.1c-0.2-0.1-0.2-0.4-0.4-0.6c-0.2-0.3-0.4-0.7-0.5-1
		c0-0.1-0.1-0.1-0.2-0.1c-0.6,0-1.2,0-1.8,0c-1.7,0-3.3,0-5,0c-0.2,0-0.1,0-0.2-0.2c0-0.3,0.1-0.4,0.3-0.6c0.8-0.7,1.7-1.3,2.5-2
		c0.6-0.4,1.1-0.9,1.5-1.5c0.5-0.7,0.7-1.5,0.6-2.3c-0.1-0.8-0.5-1.3-1.1-1.7c-0.5-0.3-1.1-0.5-1.7-0.6c-0.9-0.1-1.7,0.2-2.4,0.7
		c-0.4,0.3-0.6,0.7-0.8,1.1c0,0.1-0.1,0.1-0.1,0.2c-0.1-0.1-0.1-0.2-0.2-0.3c-0.4-0.8-1.1-1.3-2.1-1.5c-1-0.2-1.9-0.1-2.8,0.5
		c-0.7,0.4-1.1,1.1-1.1,1.9c-0.1,0.7,0.1,1.4,0.4,2c0.3,0.6,0.8,1.1,1.3,1.5c0.8,0.7,1.7,1.3,2.5,2c0.2,0.1,0.4,0.3,0.5,0.4
		c0,0,0.1,0.1,0.1,0.1c0,0.1,0,0.2,0,0.3c0,0.1,0,0.1-0.1,0.1c-0.2,0-0.5,0-0.7,0c-2.1,0-4.2,0-6.3,0c-0.1,0-0.1,0-0.2,0.1
		c-0.2,0.4-0.5,0.9-0.7,1.3c-0.1,0.1-0.1,0.2-0.2,0.3c-0.1,0.1-0.4,0.1-0.4-0.1c0-0.2-0.1-0.4-0.1-0.6c-0.1-0.5-0.1-1-0.1-1.6
		c0-0.4-0.1-0.9-0.1-1.3s-0.1-0.9-0.1-1.3c0-0.4-0.1-0.8-0.1-1.1c-0.1-0.6-0.1-1.1-0.2-1.7c0,0.1,0,0.2,0,0.2c0,0.4-0.1,0.9-0.1,1.3
		c0,0.4-0.1,0.9-0.1,1.3c0,0.2,0,0.5-0.1,0.7c0,0.4-0.1,0.7-0.1,1.1c0,0.4-0.1,0.9-0.1,1.4c0,0.5-0.1,1-0.1,1.5
		c-0.1,0.6-0.1,1.2-0.1,1.8c0,0.4-0.1,0.9-0.1,1.3c0,0.3-0.1,0.7-0.1,1c0,0.4-0.1,0.9-0.1,1.4c0,0.3,0,0.5-0.1,0.8
		c0,0.2,0,0.3-0.2,0.4c-0.1,0-0.1,0-0.2,0c-0.1-0.1-0.1-0.1-0.1-0.2c-0.1-0.7-0.2-1.3-0.3-2c-0.1-1-0.3-2-0.4-3
		c-0.1-0.7-0.2-1.4-0.3-2.1c-0.1-0.5-0.2-1-0.2-1.6c-0.1-0.3-0.1-0.6-0.1-1c0,0-0.1,0.1-0.1,0.1c-0.1,0.4-0.2,0.8-0.3,1.1
		c-0.1,0.2-0.1,0.2-0.3,0.2c-0.5,0-1,0-1.5,0c-0.4,0-0.7,0-1,0c-0.4,0-0.9,0-1.3,0C228,15.3,228,15.1,228,14.9z"/>
</g>
<g>
	<path class="st0" d="M144.2,5.2c-0.3-0.1-0.3-0.2-0.2-0.6c0,0,0-0.1,0-0.1c0-0.2,0.1-0.3,0.3-0.1c0.1,0.1,0.2,0.3,0.4,0.5
		c0.2-0.1,0.4-0.2,0.6-0.4c0,0,0,0,0,0c0,0,0,0.1,0,0.1c-0.2,0.4-0.4,0.7-0.9,0.9c-0.1,0-0.2,0.1-0.3,0c-0.1-0.1-0.1-0.2-0.1-0.3
		C144,5.3,144.1,5.2,144.2,5.2z"/>
	<path class="st0" d="M145.6,5.1c0.2,0.1,0.2,0.3,0.1,0.5c0,0.1,0,0.2,0.1,0.2c0.1,0.1,0.2,0.1,0.4,0.2c0,0,0,0.1,0,0.1
		c-0.1,0-0.2,0-0.2,0c-0.2,0-0.3,0-0.5,0c-0.1,0-0.1,0-0.1-0.1c0-0.1-0.1-0.1-0.1-0.2c0-0.1,0-0.2,0.1-0.2c0.1-0.1,0.1-0.1,0.1-0.2
		C145.4,5.3,145.5,5.2,145.6,5.1z"/>
	<path class="st0" d="M104.4,2.9c0.1,0,0.1,0,0.1,0c0,0,0,0,0,0C104.5,2.9,104.5,2.9,104.4,2.9C104.4,2.9,104.4,2.9,104.4,2.9z"/>
</g>
<g>
	<path class="st1" d="M274,11.1c0.2,0,0.4,0,0.7,0c0.1,0,0.3,0,0.4,0.1c0,0.1,0.1,0,0.1,0l0,0c0,0.1,0.1,0.1,0.2,0.1
		c0.4,0.2,0.7,0.4,1.1,0.7c0.3,0.3,0.5,0.2,0.6-0.2c0.1-0.2,0.3-0.4,0.4-0.7c0.4-0.6,1-0.9,1.7-1c0.1,0.1,0.2,0,0.4,0
		c0.5,0.1,1.1,0.3,1.5,0.7c-0.4,0-0.8,0-1,0.3c0,0,0,0,0,0c0,0-0.1,0-0.1-0.1h0v0c-0.3-0.2-0.6-0.4-0.9-0.6
		c-0.3-0.2-0.4-0.2-0.6,0.1c-0.5,0.8-0.4,1.7-0.1,2.5c0.1,0.2,0.3,0.3,0.5,0.2c0.3-0.2,0.6-0.4,1-0.6c0.1-0.1,0.2-0.1,0.3,0
		c0.4,0.4,1.2,0.4,1.6,0c0-0.1,0.1-0.1,0.2-0.1c0.2,0.1,0.5,0.2,0.7,0.5c0.1,0.4,0.1,0.8,0.2,1.1c0,0.1,0,0.1,0,0.2c0,0,0,0.1,0,0.1
		c0,1.1-0.3,2-0.8,3c-0.8,1.5-1.9,2.8-3.2,3.9c-0.1,0.1-0.2,0.1-0.4,0.1c-1.1-0.4-2.2-0.8-3.2-1.5s-1.9-1.4-2.6-2.4
		c-0.6-0.8-0.8-1.8-0.9-2.8c0-0.1,0-0.2,0-0.4c0-0.1,0-0.3,0-0.4c0.1-1,0.5-1.9,1.3-2.5C273.4,11.4,273.7,11.3,274,11.1z
		 M281.1,16.1C281.1,16.1,281.1,16.1,281.1,16.1C281.2,16.1,281.1,16.1,281.1,16.1C281.1,16,281.1,16,281.1,16.1
		C281,16,281.1,16.1,281.1,16.1z M274.2,17.4C274.2,17.4,274.2,17.4,274.2,17.4c0.2,0.2,0.4,0.3,0.5,0.4c-0.1-0.1-0.2-0.3-0.4-0.4
		C274.3,17.4,274.2,17.4,274.2,17.4C274.2,17.3,274.2,17.3,274.2,17.4C274.1,17.4,274.2,17.4,274.2,17.4z M281,15.6
		C281,15.7,281,15.7,281,15.6c0.2,0.2,0.3,0.3,0.4,0.3c0,0,0.1,0.1,0.1,0c0,0,0-0.1-0.1-0.1c-0.1-0.1-0.2-0.2-0.3-0.2
		C281.1,15.6,281,15.6,281,15.6C281,15.6,281,15.5,281,15.6C280.9,15.6,281,15.6,281,15.6z M274.1,17.6c0.1,0.1,0.1,0.2,0.3,0.2
		C274.3,17.7,274.2,17.7,274.1,17.6c-0.1-0.1-0.1-0.2-0.3-0.2C273.9,17.5,274,17.6,274.1,17.6z M280.9,15.9
		C280.9,16,281,16,280.9,15.9C281,15.9,281,15.9,280.9,15.9c-0.1-0.1-0.2-0.2-0.3-0.3C280.7,15.8,280.8,15.9,280.9,15.9z
		 M273.7,17.6c0-0.1-0.1-0.1-0.2-0.1C273.5,17.6,273.6,17.6,273.7,17.6c0.1,0.1,0.2,0.3,0.4,0.3C273.9,17.8,273.8,17.7,273.7,17.6z
		 M274.4,13.3c0-0.3-0.1-0.6-0.4-0.7c-0.2-0.1-0.4,0-0.6,0.1c-0.3,0.3-0.4,0.8-0.2,1.2c0.2,0.4,0.6,0.5,1,0.1
		C274.4,13.9,274.4,13.6,274.4,13.3z M277.9,19.1c0.1,0,0.1-0.1,0.2-0.1c0.2-0.4,0.5-0.8,0.7-1.1c0.1-0.1,0.1-0.2,0-0.3
		s-0.2,0-0.3,0.1c-0.2,0.3-0.4,0.6-0.5,0.9c-0.1,0.1-0.1,0.1-0.2,0.1c-0.3-0.2-0.6-0.4-0.9-0.7c-0.1-0.1-0.2-0.1-0.3,0
		c-0.1,0.1,0,0.2,0.1,0.3c0.4,0.3,0.8,0.5,1.1,0.8C277.8,19,277.8,19.1,277.9,19.1z M280.9,14.7c-0.1,0-0.2-0.1-0.3-0.1
		c-0.1,0-0.2,0-0.1-0.1s0-0.2-0.1-0.2s-0.2,0.1-0.2,0.1c-0.5,0.7-1,0.8-1.7,0.4c-0.1-0.1-0.2-0.1-0.3,0c-0.1,0.1,0,0.2,0.1,0.3
		c0.4,0.2,0.9,0.3,1.3,0.2c0.1,0,0.2-0.1,0.3,0.1c0.1,0.1,0.1,0.3,0.2,0.2c0.1-0.1-0.1-0.2-0.1-0.3c0-0.1-0.1-0.1,0-0.2
		c0.1-0.1,0.1-0.1,0.2,0c0.1,0.1,0.1,0.1,0.2,0.2c0,0,0.1,0.1,0.1,0c0-0.1,0-0.1-0.1-0.1s-0.1-0.1-0.1-0.1c0-0.1-0.2-0.1-0.1-0.2
		c0.1-0.1,0.1-0.2,0.3-0.1C280.6,14.8,280.8,14.8,280.9,14.7z M274.6,16.7c0,0,0,0.1,0,0.1c0.1,0,0.1-0.1,0.1-0.1
		c0-0.3,0.1-0.3,0.3-0.4c0.4-0.1,0.7-0.4,1-0.7c0.1-0.1,0.1-0.2,0-0.3c-0.1-0.1-0.2,0-0.2,0.1c0,0.1-0.1,0.1-0.1,0.2
		c-0.3,0.4-0.7,0.6-1.2,0.4c-0.1,0-0.3-0.1-0.4-0.2c-0.1,0-0.1-0.1-0.2,0c0,0.1-0.1,0.1,0,0.2c0.1,0.2,0,0.3-0.1,0.4
		c-0.1,0.1-0.3,0.1-0.2,0.2c0.1,0.1,0.2-0.1,0.3-0.2c0,0,0.1-0.1,0.1-0.1c0.1-0.2,0.2-0.2,0.3-0.1c0.2,0.1,0,0.2,0,0.3
		c0,0.1-0.2,0.2-0.1,0.2c0.1,0.1,0.1-0.1,0.2-0.2c0,0,0-0.1,0-0.1c0-0.1,0.1-0.1,0.1-0.1C274.7,16.4,274.7,16.5,274.6,16.7z
		 M273.2,14.8c0-0.1-0.1-0.2-0.2-0.2c-0.1,0-0.3,0.2-0.3,0.4c0,0.1,0.1,0.3,0.3,0.2C273.1,15.2,273.2,15,273.2,14.8z M281.3,15.5
		C281.3,15.5,281.3,15.5,281.3,15.5c0.1,0.2,0.3,0.3,0.5,0.5c0,0,0,0,0-0.1C281.7,15.7,281.5,15.6,281.3,15.5z"/>
	<path class="st1" d="M271.1,10c0.9-0.2,1.7,0,2.4,0.6c0.1,0.1,0.2,0.2,0.3,0.4c-0.1,0-0.2,0-0.3,0.1c-0.8,0.2-1.3,0.7-1.7,1.4
		c-0.4,0.7-0.6,1.4-0.5,2.2c-0.1,0.1-0.1,0-0.2,0c-0.4-0.1-0.6-0.3-0.8-0.6c-0.1-0.1-0.1-0.2-0.3-0.1c-0.1,0.1-0.1,0.2,0,0.3
		c0.3,0.5,0.8,0.7,1.4,0.7c0,1.1,0.4,2,1,2.9c0.2,0.3,0.2,0.3-0.1,0.5c-0.9,0.8-2,1.3-3.1,1.8c-0.4,0.2-0.8,0.2-1.1,0.5
		c-0.3,0.1-0.5,0-0.7-0.2c-0.5-0.4-1-0.9-1.4-1.3c-1-1-1.8-2.2-2.3-3.6c-0.5-1.4-0.5-2.8,0.1-4.1c0.3-0.8,0.9-1.4,1.5-1.9
		c0,0,0.1,0,0.1-0.1c0,0,0.1,0,0.1-0.1c0.1-0.1,0.3-0.1,0.4-0.2c1.3-0.3,2.1-0.2,3,1c0.1,0.1,0.2,0.3,0.3,0.5c0,0.1,0.1,0.2,0.2,0.2
		c0,0.1,0,0.2,0.1,0.2c0.1,0.1,0.3,0,0.4-0.1c0.3-0.3,0.7-0.5,1-0.8C270.8,10.1,271,10,271.1,10z M266,11.1c0.5,0,0.9-0.5,1-0.9
		s-0.3-0.8-0.7-0.7s-0.9,0.6-0.9,1.1C265.4,10.9,265.6,11.1,266,11.1z M268.9,17.8c0.3,0,0.7-0.1,1.1-0.3c0.1-0.1,0.4-0.1,0.3-0.3
		c-0.1-0.2-0.3-0.1-0.4,0c-0.9,0.4-1.7,0.4-2.5-0.1c-0.2-0.1-0.4-0.3-0.5-0.5c-0.1-0.1-0.2-0.1-0.3-0.1c-0.1,0.1-0.1,0.2,0,0.3
		c0,0.1,0.1,0.1,0.1,0.1C267.2,17.5,267.9,17.8,268.9,17.8z M266.8,14.2c0.3,0,0.6-0.1,0.9-0.3c0.1-0.1,0.2-0.1,0.1-0.3
		c-0.1-0.1-0.2-0.1-0.3,0c-0.8,0.4-1.2,0.3-1.8-0.4c-0.1-0.1-0.1-0.2-0.3-0.1c-0.1,0.1-0.1,0.2,0,0.3
		C265.8,14,266.3,14.2,266.8,14.2z M270.9,11.2c0.3,0,0.5-0.3,0.5-0.6c0-0.2-0.1-0.2-0.3-0.2c-0.3,0-0.5,0.3-0.5,0.5
		C270.6,11.2,270.7,11.2,270.9,11.2z M264.4,11.4c0,0.1,0.1,0.2,0.2,0.2c0.2,0,0.4-0.2,0.4-0.4c0-0.1-0.1-0.2-0.3-0.2
		C264.6,11,264.4,11.2,264.4,11.4z M264.9,14.5c0,0.2,0.2,0.4,0.3,0.6C265.1,14.9,265,14.7,264.9,14.5z M264.4,15
		C264.4,15,264.5,15,264.4,15c0-0.2-0.1-0.5-0.2-0.7c0,0,0,0-0.1,0C264.2,14.6,264.3,14.8,264.4,15z M264.5,14.4
		c0,0.2,0.1,0.4,0.3,0.6C264.8,14.8,264.6,14.6,264.5,14.4z"/>
	<path class="st2" d="M268,20.6c0.3-0.2,0.7-0.3,1.1-0.5c1.1-0.5,2.2-1.1,3.1-1.8c0.2-0.2,0.2-0.2,0.1-0.5c-0.6-0.9-1-1.8-1-2.9
		c0.2,0,0.3-0.1,0.5-0.1c0.1,1,0.4,1.9,0.9,2.8c0.7,1,1.6,1.8,2.6,2.4c1,0.6,2.1,1.1,3.2,1.5c0.1,0,0.2,0.1,0.4-0.1
		c1.3-1.1,2.4-2.4,3.2-3.9c0.5-0.9,0.8-1.9,0.8-3c0,0,0-0.1,0-0.1c0.1,0.4,0.4,0.6,0.7,0.8c-0.2,2.2-1.4,3.9-2.9,5.4
		c-0.4,0.4-0.8,0.8-1.2,1.2c-0.2,0.1-0.3,0.2-0.5,0.1c-1.7-0.5-3.3-1.2-4.6-2.3c-0.5-0.4-0.9-0.8-1.3-1.3c-0.1-0.1-0.2-0.1-0.3,0
		c-0.1,0-0.1,0-0.1,0.1l0,0c-0.1,0-0.1,0-0.1,0.1l0,0c-0.1,0-0.2,0.1-0.2,0.2l0,0c-0.3,0.1-0.5,0.3-0.7,0.5
		c-0.4,0.2-0.8,0.5-1.1,0.8l0,0c-0.2,0-0.4,0.2-0.6,0.3c-0.5,0.3-1.1,0.4-1.6,0.7C268.1,20.8,268.1,20.7,268,20.6z"/>
	<path class="st3" d="M268,20.6c0.2,0.1,0.2,0.2,0.2,0.3c0,0,0,0,0,0c-0.2,0-0.4,0.2-0.6,0.2c-0.3,0.1-0.5,0.1-0.7-0.1
		c-1.4-1.1-2.7-2.4-3.5-4c-0.3-0.6-0.6-1.2-0.7-1.8c0-0.1,0-0.2,0-0.3c0-0.5-0.1-1-0.1-1.6c0,0,0,0,0-0.1c0-0.1,0.1-0.2,0.1-0.3
		c0.1-0.8,0.4-1.6,0.9-2.3c0.1-0.2,0.3-0.3,0.4-0.5l0,0c0.1-0.1,0.3-0.1,0.3-0.3l0,0c0.2-0.1,0.3-0.2,0.4-0.3l0,0
		c0.1,0,0.2-0.1,0.3-0.1c0.1,0,0.1-0.1,0.2-0.1c-0.7,0.5-1.2,1.1-1.5,1.9c-0.6,1.4-0.6,2.7-0.1,4.1c0.5,1.4,1.3,2.5,2.3,3.6
		c0.5,0.5,0.9,0.9,1.4,1.3C267.4,20.6,267.7,20.7,268,20.6z"/>
	<path class="st3" d="M271.2,14.6c0-0.8,0.1-1.5,0.5-2.2c0.4-0.7,0.9-1.2,1.7-1.4c0.1,0,0.2,0,0.3-0.1c0.1,0.1,0.1,0.1,0.2,0.2
		c-0.3,0.1-0.6,0.2-0.9,0.4c-0.8,0.6-1.2,1.5-1.3,2.5c0,0.1,0,0.3,0,0.4C271.5,14.5,271.4,14.6,271.2,14.6z"/>
	<path class="st4" d="M283.5,15.3c-0.3-0.2-0.6-0.4-0.7-0.8c0-0.1,0-0.1,0-0.2c0.2,0,0.4-0.1,0.3-0.3c0,0,0-0.1,0-0.1
		c0.2-0.2,0.1-0.2-0.1-0.3c-0.1,0-0.1,0-0.2,0c-0.1,0-0.2-0.1-0.1-0.2s0.1-0.1,0.2-0.1c0.1,0,0.1,0,0.2,0c0.1,0,0.1,0,0.2-0.1
		c0-0.1-0.1-0.1-0.1-0.1c-0.1,0-0.1,0-0.1-0.1c0,0,0-0.1,0-0.1c0.3-0.6,0.3-1.3,0-1.9c-0.1-0.3-0.4-0.4-0.6-0.2
		c-0.2,0.1-0.4,0.2-0.5,0.3c0,0,0-0.1,0-0.1c0.3-0.2,0.6-0.4,0.9-0.6c0.2-0.1,0.4-0.1,0.5,0.1c0.4,0.8,0.6,1.6,0.2,2.4
		c-0.1,0.4-0.1,0.7-0.1,1c0,0.4,0,0.7,0.1,1.1C283.5,15.1,283.5,15.2,283.5,15.3z"/>
	<path class="st0" d="M271.3,8.5c0-0.3,0.2-0.5,0.5-0.5c0.2,0,0.2,0.2,0.3,0.3c0.1,0,0.2-0.2,0.4-0.1c0.2,0.1,0.3,0.4,0.1,0.6
		c-0.2,0.2-0.5,0.4-0.8,0.4c-0.2,0-0.2-0.1-0.3-0.2C271.4,8.8,271.4,8.7,271.3,8.5z"/>
	<path class="st3" d="M281.9,11C281.9,11,281.9,11.1,281.9,11c-0.1,0.2-0.2,0.2-0.2,0.3c0,0-0.1,0-0.1,0c-0.3-0.2-0.6-0.3-1-0.2
		c0,0,0,0,0,0c-0.1,0-0.2,0.1-0.3,0.1c0-0.1-0.1,0-0.2,0c0.3-0.3,0.6-0.4,1-0.3c-0.5-0.4-1-0.6-1.5-0.7c0.1,0,0.2,0,0.3-0.1
		c0.7,0.1,1.2,0.3,1.8,0.7C281.7,10.9,281.8,10.9,281.9,11z"/>
	<path class="st2" d="M277,11.9c-0.1,0.4-0.3,0.5-0.6,0.2c-0.3-0.3-0.7-0.5-1.1-0.7c-0.1,0-0.2-0.1-0.2-0.1
		C275.8,11.2,276.4,11.5,277,11.9z"/>
	<path class="st3" d="M270.7,10.1c-0.4,0.2-0.7,0.5-1,0.8c-0.1,0.1-0.2,0.1-0.4,0.1c-0.1,0-0.2-0.1-0.1-0.2c0.4-0.3,0.8-0.5,1.3-0.7
		C270.5,10.2,270.6,10.1,270.7,10.1z"/>
	<path class="st0" d="M274.7,10.5c-0.1,0-0.2-0.1-0.3-0.2c-0.1-0.1-0.1-0.3-0.1-0.4c0.1-0.1,0.2-0.2,0.3-0.1
		c0.1,0.2,0.4,0.1,0.5,0.3c0,0.1,0,0.1,0,0.2C275,10.4,274.9,10.4,274.7,10.5z"/>
	<path class="st5" d="M263.9,10.3c-0.1,0.2-0.3,0.3-0.4,0.5c-0.5,0.7-0.8,1.5-0.9,2.3c0,0.1,0,0.2-0.1,0.3c0-0.9,0.3-1.7,0.8-2.4
		C263.4,10.7,263.6,10.5,263.9,10.3z"/>
	<path class="st6" d="M268.2,21C268.2,21,268.2,21,268.2,21c0.5-0.3,1.1-0.5,1.6-0.7c0.2-0.1,0.4-0.2,0.6-0.3
		C269.7,20.4,268.9,20.7,268.2,21z"/>
	<path class="st6" d="M270.4,20c0.4-0.2,0.8-0.5,1.1-0.8c0.2-0.2,0.5-0.4,0.7-0.5C271.7,19.2,271,19.6,270.4,20z"/>
	<path class="st5" d="M262.5,13.5c0,0.5,0.1,1,0.1,1.6c-0.1-0.4-0.2-0.8-0.1-1.1C262.5,13.7,262.4,13.6,262.5,13.5z"/>
	<path class="st5" d="M265.1,9.5c-0.1-0.1-0.2,0-0.2,0.1c-0.1,0-0.2,0.1-0.3,0.1c0.3-0.2,0.7-0.4,1.1-0.5c-0.1,0.2-0.3,0.1-0.4,0.2
		C265.3,9.3,265.2,9.4,265.1,9.5C265.2,9.4,265.1,9.4,265.1,9.5z"/>
	<path class="st6" d="M270.7,10.1c-0.1,0-0.1,0-0.2,0c0.2-0.1,0.4-0.1,0.6-0.1C271,10,270.8,10.1,270.7,10.1z"/>
	<path class="st6" d="M279.9,10.1c-0.1,0.1-0.2,0-0.3,0.1c-0.1,0-0.2,0.1-0.4,0C279.4,10.1,279.6,10.1,279.9,10.1z"/>
	<path class="st6" d="M283.5,15c-0.1-0.4-0.1-0.7-0.1-1.1C283.5,14.3,283.5,14.7,283.5,15z"/>
	<path class="st5" d="M264.6,9.6c-0.1,0.1-0.2,0.3-0.4,0.3C264.3,9.8,264.4,9.7,264.6,9.6z"/>
	<path class="st5" d="M264.2,10c-0.1,0.2-0.2,0.2-0.3,0.3C263.9,10.1,264,10,264.2,10z"/>
	<path class="st6" d="M272.2,18.7c0-0.1,0.1-0.1,0.2-0.2C272.4,18.6,272.3,18.7,272.2,18.7z"/>
	<path class="st2" d="M275.2,11.2c0,0-0.1,0.1-0.1,0C275.1,11.2,275.1,11.2,275.2,11.2z"/>
	<path class="st6" d="M272.5,18.5c0-0.1,0.1-0.1,0.1-0.1C272.6,18.4,272.6,18.5,272.5,18.5z"/>
	<path class="st6" d="M272.4,18.6c0-0.1,0-0.1,0.1-0.1C272.5,18.5,272.5,18.6,272.4,18.6z"/>
	<path class="st0" d="M279.9,11.1L279.9,11.1L279.9,11.1c0,0.1,0,0.1,0,0.1c0,0,0,0,0,0.1c-0.4,0.4-0.4,0.7-0.1,1.2
		c-0.3,0.2-0.6,0.4-0.9,0.5c-0.2,0.1-0.4,0.1-0.5-0.1c-0.3-0.7-0.3-1.4,0.1-2.1c0.1-0.2,0.3-0.2,0.4-0.1c0.2,0.1,0.4,0.2,0.6,0.4
		c0,0,0,0.1,0.1,0C279.8,11.2,279.9,11.2,279.9,11.1z M278.5,11.6c0,0.1,0,0.2,0.1,0.2c0.1,0,0.1-0.1,0.1-0.2c0-0.2,0-0.4,0.2-0.5
		c0.1-0.1,0.1-0.1,0-0.2c-0.1-0.1-0.1,0-0.2,0.1C278.6,11.1,278.5,11.3,278.5,11.6z"/>
	<path class="st4" d="M279.9,11.1c0,0.1-0.1,0.1-0.1,0.1c0,0-0.1,0-0.1,0c-0.2-0.1-0.4-0.3-0.6-0.4c-0.2-0.1-0.3-0.1-0.4,0.1
		c-0.4,0.7-0.4,1.4-0.1,2.1c0.1,0.2,0.3,0.2,0.5,0.1c0.3-0.2,0.6-0.4,0.9-0.5c0,0,0.1,0,0.1-0.1c0.5,0.5,1.2,0.5,1.6,0
		c0,0,0.1,0,0.1,0c0.3,0.2,0.6,0.4,0.9,0.6c0.1,0.1,0.2,0.1,0.3,0c0,0.1-0.1,0.1-0.2,0.1c-0.1,0-0.2,0-0.2,0.1
		c-0.2-0.3-0.5-0.4-0.7-0.5c-0.1-0.1-0.1,0-0.2,0.1c-0.4,0.4-1.2,0.4-1.6,0c-0.1-0.1-0.2-0.1-0.3,0c-0.3,0.2-0.6,0.4-1,0.6
		c-0.2,0.1-0.4,0.1-0.5-0.2c-0.3-0.9-0.3-1.7,0.1-2.5c0.2-0.3,0.3-0.3,0.6-0.1C279.3,10.7,279.6,10.9,279.9,11.1z"/>
	<path class="st7" d="M274.4,13.3c0,0.3-0.1,0.6-0.3,0.8c-0.3,0.3-0.8,0.2-1-0.1c-0.2-0.4-0.1-0.9,0.2-1.2c0.2-0.2,0.4-0.2,0.6-0.1
		C274.3,12.7,274.4,13,274.4,13.3z"/>
	<path class="st8" d="M277.9,19.1c-0.1,0-0.1,0-0.2-0.1c-0.4-0.3-0.7-0.5-1.1-0.8c-0.1-0.1-0.2-0.2-0.1-0.3c0.1-0.1,0.2-0.1,0.3,0
		c0.3,0.2,0.6,0.4,0.9,0.7c0.1,0.1,0.2,0.1,0.2-0.1c0.2-0.3,0.4-0.6,0.5-0.9c0.1-0.1,0.1-0.2,0.3-0.1s0.1,0.2,0,0.3
		c-0.2,0.4-0.5,0.8-0.7,1.1C278,19,278,19.1,277.9,19.1z"/>
	<path class="st8" d="M280.9,14.7c-0.2,0.1-0.3,0.1-0.4,0c-0.2-0.1-0.2,0-0.3,0.1c-0.1,0.1,0.1,0.1,0.1,0.2c0,0,0.1,0.1,0.1,0.1
		c0,0,0.1,0,0.1,0.1c0,0.1-0.1,0-0.1,0c-0.1-0.1-0.2-0.1-0.2-0.2c-0.1-0.1-0.1-0.1-0.2,0c-0.1,0.1,0,0.1,0,0.2
		c0,0.1,0.2,0.2,0.1,0.3c-0.1,0.1-0.2-0.1-0.2-0.2c-0.1-0.1-0.1-0.1-0.3-0.1c-0.5,0.2-0.9,0.1-1.3-0.2c-0.1-0.1-0.2-0.1-0.1-0.3
		c0.1-0.1,0.2-0.1,0.3,0c0.7,0.4,1.2,0.2,1.7-0.4c0.1-0.1,0.1-0.2,0.2-0.1c0.1,0,0.1,0.1,0.1,0.2c0,0.1,0.1,0.1,0.1,0.1
		C280.7,14.7,280.8,14.7,280.9,14.7z"/>
	<path class="st8" d="M274.6,16.7c0-0.2,0.1-0.3-0.2-0.3c-0.1,0-0.1,0-0.1,0.1c0,0.1,0,0.1,0,0.1c-0.1,0.1-0.1,0.3-0.2,0.2
		c-0.1-0.1,0.1-0.1,0.1-0.2c0-0.1,0.2-0.2,0-0.3c-0.1-0.1-0.2-0.1-0.3,0.1c0,0,0,0.1-0.1,0.1c-0.1,0.1-0.2,0.2-0.3,0.2
		c-0.1-0.1,0.1-0.1,0.2-0.2c0.1-0.1,0.2-0.2,0.1-0.4c0-0.1,0-0.1,0-0.2c0.1-0.1,0.1-0.1,0.2,0c0.1,0.1,0.3,0.1,0.4,0.2
		c0.5,0.1,0.9,0,1.2-0.4c0-0.1,0.1-0.1,0.1-0.2c0.1-0.1,0.1-0.1,0.2-0.1c0.1,0.1,0.1,0.2,0,0.3c-0.2,0.4-0.5,0.6-1,0.7
		c-0.2,0.1-0.4,0.1-0.3,0.4C274.8,16.7,274.8,16.8,274.6,16.7C274.6,16.8,274.6,16.7,274.6,16.7z"/>
	<path class="st8" d="M271.2,14.6c0.2,0,0.3-0.1,0.5-0.1c0,0.1,0,0.2,0,0.4c-0.2,0-0.3,0.1-0.5,0.1c-0.6,0-1-0.3-1.4-0.7
		c-0.1-0.1-0.1-0.2,0-0.3c0.1-0.1,0.2,0,0.3,0.1c0.2,0.3,0.5,0.5,0.8,0.6C271.1,14.6,271.1,14.7,271.2,14.6z"/>
	<path class="st2" d="M282.6,13.2c0-0.1,0.1-0.1,0.2-0.1c0.1,0,0.2,0,0.2-0.1c0,0,0.1,0,0.1-0.1c0,0.1,0.1,0.1,0.1,0.1
		c0.1,0,0.1,0,0.1,0.1c0,0.1-0.1,0.1-0.2,0.1c-0.1,0-0.1,0-0.2,0c-0.1,0-0.2,0-0.2,0.1c0,0.1,0,0.2,0.1,0.2c0.1,0,0.1,0,0.2,0
		c0.2,0.1,0.3,0.1,0.1,0.3c0,0-0.1,0.1,0,0.1c0,0.3-0.1,0.3-0.3,0.3C282.7,14,282.6,13.6,282.6,13.2z"/>
	<path class="st9" d="M273.2,14.8c0,0.2-0.1,0.4-0.2,0.4c-0.2,0-0.2-0.1-0.3-0.2c0-0.2,0.1-0.4,0.3-0.4
		C273.2,14.5,273.2,14.7,273.2,14.8z"/>
	<path class="st10" d="M281.3,15.5c0.2,0.1,0.4,0.3,0.6,0.4c0,0,0,0,0,0.1C281.7,15.8,281.5,15.7,281.3,15.5
		C281.3,15.5,281.3,15.5,281.3,15.5z"/>
	<path class="st10" d="M274.3,17.4c0.2,0.1,0.3,0.2,0.4,0.4C274.5,17.7,274.4,17.6,274.3,17.4C274.3,17.4,274.3,17.4,274.3,17.4z"/>
	<path class="st10" d="M273.7,17.6c0.1,0.1,0.3,0.2,0.4,0.4C273.9,17.9,273.8,17.8,273.7,17.6C273.6,17.7,273.6,17.6,273.7,17.6z"/>
	<path class="st10" d="M280.9,15.9c-0.1-0.1-0.2-0.1-0.3-0.3C280.8,15.7,280.9,15.8,280.9,15.9C280.9,15.9,280.9,15.9,280.9,15.9z"
		/>
	<path class="st10" d="M281.1,15.7c0.1,0.1,0.2,0.1,0.3,0.2c0,0,0,0,0,0C281.3,15.9,281.2,15.8,281.1,15.7
		C281.1,15.7,281.1,15.7,281.1,15.7z"/>
	<path class="st11" d="M279.9,11.3C279.9,11.3,279.9,11.3,279.9,11.3c0-0.1,0.1-0.1,0.1-0.1c0,0,0,0,0,0c0,0,0.1,0,0.2,0
		c0,0.1-0.1,0.1-0.1,0.1C280,11.3,280,11.3,279.9,11.3z"/>
	<path class="st10" d="M274.1,17.6c-0.1,0-0.2-0.1-0.3-0.2C274,17.4,274,17.5,274.1,17.6C274.1,17.6,274.1,17.6,274.1,17.6z"/>
	<path class="st10" d="M274.1,17.6c0.1,0,0.2,0.1,0.2,0.2C274.3,17.8,274.2,17.7,274.1,17.6C274.1,17.6,274.1,17.6,274.1,17.6z"/>
	<path class="st10" d="M273.6,17.7c-0.1,0-0.1-0.1-0.2-0.2C273.6,17.5,273.6,17.6,273.6,17.7C273.6,17.6,273.6,17.7,273.6,17.7z"/>
	<path class="st10" d="M281.4,15.9C281.5,15.9,281.5,16,281.4,15.9C281.5,16.1,281.4,16,281.4,15.9
		C281.4,15.9,281.4,15.9,281.4,15.9z"/>
	<path class="st4" d="M280,11.2c0,0-0.1,0.1-0.1,0.1c0,0,0-0.1,0-0.1C279.9,11.2,280,11.2,280,11.2z"/>
	<path class="st10" d="M281,15.6C281,15.6,280.9,15.6,281,15.6C281,15.5,281,15.6,281,15.6C281,15.6,281,15.6,281,15.6z"/>
	<path class="st10" d="M274.2,17.4C274.1,17.4,274.1,17.4,274.2,17.4C274.2,17.3,274.2,17.3,274.2,17.4
		C274.2,17.4,274.2,17.4,274.2,17.4z"/>
	<path class="st10" d="M281.1,16.1C281.1,16.1,281,16,281.1,16.1C281.1,16,281.1,16,281.1,16.1C281.1,16.1,281.1,16.1,281.1,16.1z"
		/>
	<path class="st10" d="M274.3,17.4C274.2,17.4,274.2,17.4,274.3,17.4C274.2,17.4,274.2,17.4,274.3,17.4
		C274.2,17.4,274.3,17.4,274.3,17.4C274.3,17.4,274.3,17.4,274.3,17.4z"/>
	<path class="st10" d="M281.1,16C281.2,16.1,281.2,16.1,281.1,16C281.1,16.1,281.1,16.1,281.1,16C281.1,16.1,281.1,16.1,281.1,16z"
		/>
	<path class="st10" d="M281,15.6C281,15.6,281.1,15.6,281,15.6C281.1,15.7,281.1,15.7,281,15.6C281,15.7,281,15.7,281,15.6
		C281,15.6,281,15.6,281,15.6z"/>
	<path class="st10" d="M280.9,15.9C281,15.9,281,15.9,280.9,15.9C281,15.9,280.9,15.9,280.9,15.9C280.9,15.9,280.9,15.9,280.9,15.9z
		"/>
	<path class="st7" d="M266,11.1c-0.4,0-0.6-0.2-0.6-0.5c0-0.5,0.4-1,0.9-1.1s0.8,0.2,0.7,0.7C266.9,10.6,266.5,11.1,266,11.1z"/>
	<path class="st8" d="M268.9,17.8c-1,0.1-1.7-0.2-2.3-0.8c0-0.1-0.1-0.1-0.1-0.1c-0.1-0.1-0.1-0.2,0-0.3c0.1-0.1,0.2,0,0.3,0.1
		c0.2,0.2,0.3,0.4,0.5,0.5c0.8,0.5,1.7,0.5,2.5,0.1c0.1-0.1,0.3-0.2,0.4,0c0.1,0.2-0.1,0.3-0.3,0.3
		C269.6,17.7,269.2,17.8,268.9,17.8z"/>
	<path class="st8" d="M266.8,14.2c-0.6,0-1-0.3-1.3-0.8c-0.1-0.1-0.1-0.2,0-0.3s0.2,0,0.3,0.1c0.5,0.7,1,0.8,1.8,0.4
		c0.1-0.1,0.2-0.1,0.3,0c0.1,0.1,0,0.2-0.1,0.3C267.4,14.1,267.2,14.2,266.8,14.2z"/>
	<path class="st9" d="M270.9,11.2c-0.1,0-0.3-0.1-0.3-0.2c0-0.2,0.2-0.5,0.5-0.5c0.2,0,0.3,0.1,0.3,0.2
		C271.4,10.9,271.1,11.2,270.9,11.2z"/>
	<path class="st9" d="M264.4,11.4c0-0.2,0.1-0.4,0.3-0.4c0.1,0,0.2,0,0.3,0.2c0,0.2-0.2,0.4-0.4,0.4
		C264.5,11.6,264.5,11.5,264.4,11.4z"/>
	<path class="st10" d="M264.9,14.5c0.1,0.2,0.3,0.4,0.3,0.6C265,14.9,264.9,14.7,264.9,14.5z"/>
	<path class="st10" d="M264.4,15c-0.1-0.2-0.2-0.4-0.3-0.6c0,0,0,0,0.1,0C264.3,14.6,264.4,14.8,264.4,15
		C264.5,15,264.5,15,264.4,15z"/>
	<path class="st10" d="M264.5,14.4c0.1,0.2,0.2,0.4,0.3,0.6C264.7,14.9,264.5,14.7,264.5,14.4z"/>
	<path class="st3" d="M265.2,9.4c0,0,0.1-0.1,0.1-0.1C265.3,9.4,265.2,9.4,265.2,9.4z"/>
	<path class="st0" d="M283,13C283,13,283,13,283,13c-0.2,0.1-0.3,0.1-0.4,0c-0.3-0.2-0.7-0.3-0.9-0.6c0.3-0.4,0.3-0.8,0-1.1
		c0-0.1,0.2-0.1,0.2-0.2c0.2-0.1,0.4-0.2,0.5-0.3c0.3-0.2,0.5-0.1,0.6,0.2c0.3,0.6,0.3,1.3,0,1.9C283.1,12.9,283,12.9,283,13z
		 M282.7,11c0-0.1-0.1-0.1-0.2-0.1c-0.2,0.1-0.4,0.2-0.5,0.3c-0.1,0.1-0.1,0.1,0,0.2C282.1,11.5,282.7,11.1,282.7,11
		C282.7,11,282.7,11,282.7,11z"/>
	<path class="st0" d="M280.1,11.3c0.1,0,0.1-0.1,0.1-0.1c0.1,0,0.2-0.1,0.3-0.1c0,0,0,0,0,0c0.4-0.1,0.7,0,1,0.2
		c0.2,0.4,0.3,0.7,0,1.1c-0.5,0.5-1.1,0.5-1.6,0C279.8,12.1,279.7,11.7,280.1,11.3z M280.5,11.3c-0.2,0-0.3,0.1-0.4,0.2
		c0,0.1-0.1,0.1-0.1,0.2c0,0.1,0.1,0.1,0.2,0.1c0.2,0,0.3-0.1,0.4-0.2c0.1-0.1,0.1-0.1,0.1-0.2C280.7,11.3,280.6,11.3,280.5,11.3z"
		/>
	<path class="st12" d="M281.6,12.4c0.3-0.4,0.2-0.7,0-1.1c0,0,0.1,0,0.1,0c0.3,0.3,0.3,0.8,0,1.1C281.7,12.4,281.6,12.4,281.6,12.4z
		"/>
	<path class="st11" d="M280.6,11.1C280.6,11.1,280.5,11.1,280.6,11.1C280.5,11.1,280.6,11.1,280.6,11.1z"/>
	<path class="st13" d="M278.5,11.6c0-0.2,0.1-0.4,0.2-0.6c0-0.1,0.1-0.1,0.2-0.1c0.1,0.1,0.1,0.1,0,0.2c-0.1,0.1-0.2,0.3-0.2,0.5
		c0,0.1,0,0.2-0.1,0.2C278.5,11.7,278.5,11.7,278.5,11.6z"/>
	<path class="st12" d="M280.1,11.3c-0.3,0.3-0.3,0.7-0.1,1.1c0,0-0.1,0-0.1,0.1c-0.3-0.5-0.3-0.8,0.1-1.2
		C280,11.3,280,11.3,280.1,11.3z"/>
	<path class="st11" d="M279.7,11.1C279.7,11.1,279.7,11.2,279.7,11.1C279.7,11.2,279.7,11.2,279.7,11.1z"/>
	<path class="st13" d="M282.7,11C282.7,11,282.7,11,282.7,11c0,0.1-0.6,0.5-0.7,0.5c-0.1-0.1-0.1-0.1,0-0.2c0.2-0.1,0.4-0.2,0.5-0.3
		C282.6,10.8,282.7,10.9,282.7,11z"/>
	<path class="st9" d="M280.5,11.3c0.1,0,0.2,0,0.2,0.1c0,0.1,0,0.2-0.1,0.2c-0.1,0.1-0.3,0.2-0.4,0.2c-0.1,0-0.2,0-0.2-0.1
		c0-0.1,0-0.1,0.1-0.2C280.2,11.4,280.4,11.3,280.5,11.3z"/>
</g>
</svg>
